<svg width="430" height="932" viewBox="0 0 430 932" fill="none" xmlns="http://www.w3.org/2000/svg">
<g clip-path="url(#clip0_107_4750)">
<rect width="430" height="932" fill="#6691FE"/>
<path fill-rule="evenodd" clip-rule="evenodd" d="M268.753 -438.606C349.39 -391.281 395.287 -310.629 434.669 -225.83C473.332 -142.579 511.829 -55.0366 488.066 33.6258C462.729 128.163 394.976 207.476 307.028 250.421C218.525 293.637 112.535 301.737 22.9899 260.725C-60.6295 222.426 -103.172 133.9 -135.429 47.7696C-164.23 -29.1348 -156.142 -107.584 -145.438 -189.004C-130.149 -305.3 -161.664 -456.309 -61.1995 -516.851C39.445 -577.502 167.411 -498.083 268.753 -438.606Z" fill="url(#paint0_linear_107_4750)"/>
<path fill-rule="evenodd" clip-rule="evenodd" d="M255.753 -548.606C336.39 -501.281 382.287 -420.629 421.669 -335.83C460.332 -252.579 498.829 -165.037 475.066 -76.3742C449.729 18.1628 381.976 97.4758 294.028 140.421C205.526 183.637 99.5347 191.737 9.98987 150.725C-73.6295 112.426 -116.172 23.9005 -148.429 -62.2304C-177.23 -139.135 -169.142 -217.584 -158.438 -299.004C-143.149 -415.3 -174.664 -566.309 -74.1995 -626.851C26.445 -687.502 154.411 -608.083 255.753 -548.606Z" fill="url(#paint1_linear_107_4750)"/>
<path fill-rule="evenodd" clip-rule="evenodd" d="M210.558 -440.875C270.525 -405.681 304.657 -345.702 333.945 -282.639C362.698 -220.727 391.327 -155.625 373.655 -89.6889C354.813 -19.3843 304.426 39.5985 239.022 71.5359C173.205 103.675 94.3825 109.698 27.7906 79.1982C-34.3948 50.7163 -66.0324 -15.1175 -90.0208 -79.1705C-111.44 -136.362 -105.425 -194.703 -97.4643 -255.253C-86.0942 -341.739 -109.531 -454.04 -34.8187 -499.063C40.0278 -544.168 135.192 -485.106 210.558 -440.875Z" fill="url(#paint2_linear_107_4750)"/>
</g>
<defs>
<linearGradient id="paint0_linear_107_4750" x1="493.495" y1="-546.794" x2="78" y2="351" gradientUnits="userSpaceOnUse">
<stop offset="0.427244" stop-color="#82A5FF"/>
<stop offset="0.990432" stop-color="#6691FE" stop-opacity="0.5"/>
</linearGradient>
<linearGradient id="paint1_linear_107_4750" x1="259" y1="-760" x2="-75.5001" y2="105.5" gradientUnits="userSpaceOnUse">
<stop offset="0.587887" stop-color="#9CACFF"/>
<stop offset="1" stop-color="#8699FE" stop-opacity="0"/>
</linearGradient>
<linearGradient id="paint2_linear_107_4750" x1="377.692" y1="-521.331" x2="48.5001" y2="34.5" gradientUnits="userSpaceOnUse">
<stop offset="0.563684" stop-color="#C0C7FF"/>
<stop offset="1" stop-color="#95A0FF" stop-opacity="0"/>
</linearGradient>
<clipPath id="clip0_107_4750">
<rect width="430" height="932" fill="white"/>
</clipPath>
</defs>
</svg>
